PathFileType	4	(X/Y/Z)	C:\Users\Caesar\Desktop\毕业设计\1-评估老年人缺少的力\Data\s4\S4_T_02_fixed.trc	Maker trajectories (.TRC) by Lee-Son ToolBox																																																																																				
DataRate	CameraRate	NumFrames	NumMarkers	Units	OrigDataRate	OrigDataStartFrame	OrigNumFrames																																																																																	
100	100	11	29	mm	100	376	1000																																																																																	
Frame#	Time	Unlabeled27			Unlabeled48			Unlabeled26			HEAD			C7			T10			STERN			LSHO			LELB			RSHO			RELB			LASI			RASI			LPSI			RPSI			LHIP			LTHI			LKNE			LTIB			LANK			LHEE			LTOE			RHIP			RTHI			RKNE			RTIB			RANK			RHEE			RTOE		
		X1	Y1	Z1	X2	Y2	Z2	X3	Y3	Z3	X4	Y4	Z4	X5	Y5	Z5	X6	Y6	Z6	X7	Y7	Z7	X8	Y8	Z8	X9	Y9	Z9	X10	Y10	Z10	X11	Y11	Z11	X12	Y12	Z12	X13	Y13	Z13	X14	Y14	Z14	X15	Y15	Z15	X16	Y16	Z16	X17	Y17	Z17	X18	Y18	Z18	X19	Y19	Z19	X20	Y20	Z20	X21	Y21	Z21	X22	Y22	Z22	X23	Y23	Z23	X24	Y24	Z24	X25	Y25	Z25	X26	Y26	Z26	X27	Y27	Z27	X28	Y28	Z28	X29	Y29	Z29
																																																																																								
376	3.75	764.797	168.399	1090.69	774.2	168.983	1794.84	214.245	171.281	1098.18	603.711	1658.14	1411.69	400.188	1501.78	1408.94	339.009	1372.43	1412.18	557.305	1386.83	1416.24	475.519	1491.84	1269.71	561.548	1209.09	1160.18	467.544	1494.7	1570.01	571.183	1209.71	1687.04	476.441	1038.48	1293.7	500.428	1030.88	1529.62	289.291	1109.66	1370.57	297.232	1105.73	1495.83	376.894	1002.64	1253.22	370.857	772.421	1276.43	325.314	636.302	1292.97	249.37	393.353	1317.14	189.705	305.124	1335.15	143.351	273.998	1332.22	348.406	218.162	1365.57	426.084	1005.62	1592.91	505.936	891.919	1572.74	566.567	658.349	1563.23	563.245	541.131	1560.51	462.733	309.871	1541.39	418.753	277.099	1530.51	629.621	241.086	1531.74
377	3.76	764.794	168.396	1090.69	774.205	168.982	1794.84	214.247	171.265	1098.19	604.167	1656.68	1412.45	400.362	1500.61	1409.56	338.921	1371.39	1412.81	557.216	1385.27	1416.57	475.542	1490.64	1270.25	561.042	1207.7	1160.67	467.706	1493.39	1570.54	571.067	1208.43	1688.07	475.239	1037.05	1293.91	500.097	1029.44	1529.89	288.603	1108.79	1371.42	296.868	1104.77	1496.63	375.396	1001.67	1253.69	366.092	772.175	1276.71	318.424	636.788	1293.23	240.352	394.354	1317.09	180.037	306.48	1335.18	133.325	275.874	1332.33	337.55	217.865	1365.61	425.757	1004.38	1593.32	505.099	890.874	1573.65	565.928	657.844	1564.1	568.698	540.87	1561.61	483.787	303.935	1542.02	441.924	268.683	1530.67	654.449	244.969	1532.92
378	3.77	764.791	168.393	1090.69	774.208	168.981	1794.84	214.26	171.247	1098.19	604.679	1655.12	1413.26	400.601	1499.34	1410.22	338.923	1370.24	1413.48	557.185	1383.61	1416.98	475.621	1489.35	1270.84	560.501	1206.18	1161.18	467.961	1491.97	1571.13	570.933	1206.99	1689.17	474.116	1035.56	1294.18	499.916	1027.82	1530.22	288.02	1107.84	1372.38	296.67	1103.67	1497.54	373.949	1000.68	1254.22	361.428	771.925	1277.01	311.692	637.29	1293.51	231.433	395.407	1317.06	170.406	307.929	1335.23	123.381	277.836	1332.45	326.671	217.6	1365.66	425.576	1002.92	1593.77	504.157	889.311	1574.59	564.724	656.793	1564.86	573.592	540.472	1562.66	504.682	298.859	1542.74	465.097	261.2	1530.9	678.558	249.9	1533.84
379	3.78	764.786	168.391	1090.69	774.212	168.982	1794.84	214.284	171.228	1098.19	605.246	1653.49	1414.13	400.917	1497.99	1410.95	339.023	1368.99	1414.22	557.221	1381.84	1417.46	475.773	1487.98	1271.49	559.934	1204.57	1161.69	468.323	1490.47	1571.78	570.793	1205.38	1690.33	473.084	1034.04	1294.5	499.913	1026.03	1530.58	287.547	1106.81	1373.48	296.659	1102.43	1498.57	372.562	999.673	1254.81	356.894	771.681	1277.3	305.173	637.811	1293.76	222.633	396.516	1317.07	160.826	309.481	1335.29	113.527	279.896	1332.59	315.764	217.359	1365.71	425.59	1001.26	1594.26	503.182	887.262	1575.52	563.11	655.277	1565.5	577.995	539.971	1563.63	525.146	294.715	1543.48	487.965	254.745	1531.18	701.655	255.842	1534.43
380	3.79	764.781	168.389	1090.69	774.214	168.983	1794.84	214.317	171.211	1098.18	605.869	1651.79	1415.07	401.322	1496.56	1411.75	339.226	1367.66	1415.04	557.331	1379.99	1418.02	476.014	1486.57	1272.21	559.349	1202.88	1162.2	468.805	1488.87	1572.53	570.657	1203.6	1691.56	472.158	1032.5	1294.84	500.114	1024.1	1530.94	287.188	1105.69	1374.7	296.845	1101.06	1499.72	371.247	998.654	1255.46	352.533	771.445	1277.59	298.939	638.351	1293.94	213.976	397.678	1317.08	151.32	311.14	1335.36	103.774	282.064	1332.73	304.825	217.132	1365.76	425.848	999.441	1594.79	502.256	884.784	1576.44	561.273	653.405	1566.06	581.989	539.398	1564.49	544.855	291.504	1544.16	510.152	249.358	1531.46	723.413	262.669	1534.66
381	3.8	764.774	168.387	1090.68	774.216	168.984	1794.84	214.355	171.198	1098.17	606.546	1650.05	1416.07	401.826	1495.07	1412.65	339.537	1366.26	1415.96	557.52	1378.07	1418.67	476.356	1485.11	1273.03	558.757	1201.16	1162.68	469.414	1487.21	1573.37	570.538	1201.66	1692.87	471.351	1030.96	1295.19	500.538	1022.09	1531.28	286.942	1104.48	1376.06	297.235	1099.56	1501	370.021	997.616	1256.18	348.399	771.214	1277.88	293.065	638.903	1293.99	205.478	398.886	1317.1	141.918	312.908	1335.41	94.1319	284.35	1332.88	293.855	216.907	1365.82	426.397	997.494	1595.37	501.476	881.959	1577.31	559.416	651.297	1566.57	585.653	538.776	1565.21	563.447	289.16	1544.7	531.228	245.014	1531.72	743.49	270.145	1534.46
382	3.81	764.769	168.385	1090.68	774.216	168.984	1794.83	214.393	171.191	1098.16	607.277	1648.28	1417.15	402.437	1493.53	1413.66	339.96	1364.81	1416.98	557.796	1376.1	1419.41	476.806	1483.64	1273.96	558.168	1199.45	1163.12	470.151	1485.48	1574.32	570.443	1199.6	1694.26	470.673	1029.43	1295.52	501.196	1020.01	1531.58	286.817	1103.16	1377.54	297.836	1097.92	1502.39	368.901	996.548	1256.96	344.553	770.976	1278.16	287.622	639.456	1293.9	197.16	400.132	1317.11	132.645	314.783	1335.42	84.61	286.764	1333.02	282.855	216.676	1365.89	427.271	995.459	1595.97	500.944	878.9	1578.09	557.739	649.068	1567.06	589.049	538.111	1565.77	580.547	287.553	1545.06	550.73	241.635	1531.95	761.55	277.913	1533.8
383	3.82	764.764	168.385	1090.67	774.213	168.985	1794.83	214.43	171.189	1098.15	608.057	1646.51	1418.31	403.154	1491.95	1414.8	340.5	1363.32	1418.12	558.17	1374.1	1420.26	477.365	1482.16	1275.04	557.594	1197.77	1163.51	471.011	1483.69	1575.39	570.382	1197.41	1695.74	470.134	1027.9	1295.82	502.094	1017.92	1531.81	286.829	1101.73	1379.16	298.656	1096.16	1503.89	367.907	995.438	1257.81	341.06	770.709	1278.44	282.675	639.987	1293.65	189.048	401.404	1317.11	123.527	316.764	1335.39	75.2159	289.312	1333.15	271.828	216.431	1365.96	428.488	993.377	1596.59	500.767	875.739	1578.74	556.422	646.813	1567.54	592.212	537.395	1566.14	595.791	286.503	1545.21	568.192	239.094	1532.17	777.295	285.506	1532.64
384	3.83	764.761	168.387	1090.67	774.207	168.986	1794.83	214.458	171.191	1098.15	608.886	1644.74	1419.56	403.976	1490.33	1416.09	341.165	1361.77	1419.38	558.66	1372.08	1421.22	478.032	1480.68	1276.28	557.048	1196.16	1163.83	471.984	1481.86	1576.58	570.362	1195.14	1697.33	469.744	1026.39	1296.08	503.232	1015.86	1531.98	286.995	1100.17	1380.89	299.707	1094.29	1505.51	367.065	994.274	1258.72	337.982	770.387	1278.72	278.273	640.458	1293.3	181.178	402.691	1317.09	114.585	318.85	1335.3	65.9569	292.001	1333.23	260.778	216.168	1366.04	430.049	991.287	1597.22	501.044	872.625	1579.22	555.61	644.596	1567.97	595.156	536.597	1566.33	608.857	285.799	1545.2	583.179	237.237	1532.39	790.481	292.359	1530.99
385	3.84	764.76	168.391	1090.67	774.199	168.988	1794.83	214.475	171.193	1098.16	609.761	1643	1420.9	404.897	1488.68	1417.54	341.962	1360.18	1420.78	559.286	1370.07	1422.3	478.804	1479.23	1277.68	556.541	1194.66	1164.08	473.059	1479.99	1577.9	570.391	1192.79	1699.04	469.519	1024.9	1296.32	504.611	1013.84	1532.08	287.332	1098.49	1382.74	300.994	1092.33	1507.22	366.402	993.043	1259.7	335.375	769.98	1279.02	274.451	640.817	1292.92	173.597	403.981	1317.03	105.84	321.039	1335.14	56.8444	294.842	1333.25	249.714	215.886	1366.12	431.938	989.227	1597.86	501.864	869.706	1579.51	555.404	642.458	1568.31	597.88	535.67	1566.32	619.479	285.225	1545.06	595.309	235.913	1532.64	800.948	297.857	1528.86
386	3.85	764.76	168.395	1090.67	774.19	168.989	1794.83	214.478	171.196	1098.18	610.679	1641.3	1422.33	405.91	1486.99	1419.14	342.897	1358.52	1422.3	560.071	1368.1	1423.49	479.672	1477.82	1279.24	556.084	1193.29	1164.26	474.227	1478.09	1579.36	570.478	1190.38	1700.87	469.48	1023.42	1296.53	506.23	1011.89	1532.15	287.858	1096.72	1384.68	302.515	1090.33	1509.01	365.95	991.734	1260.73	333.278	769.455	1279.35	271.229	641.009	1292.62	166.355	405.265	1316.95	97.3194	323.337	1334.91	47.9009	297.85	1333.19	238.648	215.586	1366.2	434.129	987.233	1598.5	503.292	867.112	1579.59	555.859	640.424	1568.49	600.387	534.555	1566.09	627.478	284.592	1544.86	604.29	234.996	1532.92	808.621	301.403	1526.28
